HIERARCHY
ROOT Hips
{
 OFFSET 0.000000 0.000000 0.000000
 CHANNELS 6 Xposition Yposition Zposition Yrotation Xrotation Zrotation
 JOINT Chest
 {
  OFFSET 0.000000 9.585900 0.002600
  CHANNELS 3 Yrotation Xrotation Zrotation
  JOINT Chest2
  {
   OFFSET 0.000000 9.601200 -0.005300
   CHANNELS 3 Yrotation Xrotation Zrotation
   JOINT Chest3
   {
    OFFSET 0.000000 9.561800 0.000000
    CHANNELS 3 Yrotation Xrotation Zrotation
    JOINT Chest4
    {
     OFFSET 0.000000 9.552100 0.000000
     CHANNELS 3 Yrotation Xrotation Zrotation
     JOINT Neck
     {
      OFFSET 0.000000 14.453000 0.000000
      CHANNELS 3 Yrotation Xrotation Zrotation
      JOINT Head
      {
       OFFSET 0.000000 8.936500 -0.011300
       CHANNELS 3 Yrotation Xrotation Zrotation
       End Site
       {
        OFFSET 0.000000 17.073600 -0.006000
       }
      }
     }
     JOINT RightCollar
     {
      OFFSET -2.921100 9.558500 0.000000
      CHANNELS 3 Yrotation Xrotation Zrotation
      JOINT RightShoulder
      {
       OFFSET -13.519700 0.000000 0.000000
       CHANNELS 3 Yrotation Xrotation Zrotation
       JOINT RightElbow
       {
        OFFSET 0.000000 -29.696600 0.000000
        CHANNELS 3 Yrotation Xrotation Zrotation
        JOINT RightWrist
        {
         OFFSET 0.000000 -24.004700 0.000000
         CHANNELS 3 Yrotation Xrotation Zrotation
         End Site
         {
          OFFSET 0.000000 -17.728500 0.000000
         }
        }
       }
      }
     }
     JOINT LeftCollar
     {
      OFFSET 2.921100 9.558500 0.000000
      CHANNELS 3 Yrotation Xrotation Zrotation
      JOINT LeftShoulder
      {
       OFFSET 13.519700 0.000000 0.000000
       CHANNELS 3 Yrotation Xrotation Zrotation
       JOINT LeftElbow
       {
        OFFSET 0.000000 -29.696600 0.000000
        CHANNELS 3 Yrotation Xrotation Zrotation
        JOINT LeftWrist
        {
         OFFSET 0.000000 -24.004700 0.000000
         CHANNELS 3 Yrotation Xrotation Zrotation
         End Site
         {
          OFFSET 0.000000 -17.728500 0.000000
         }
        }
       }
      }
     }
    }
   }
  }
 }
 JOINT RightHip
 {
  OFFSET -7.771700 -0.012900 -0.001300
  CHANNELS 3 Yrotation Xrotation Zrotation
  JOINT RightKnee
  {
   OFFSET 0.000000 -40.869800 0.001200
   CHANNELS 3 Yrotation Xrotation Zrotation
   JOINT RightAnkle
   {
    OFFSET 0.000000 -39.717900 0.002100
    CHANNELS 3 Yrotation Xrotation Zrotation
    JOINT RightToe
    {
     OFFSET 0.000000 -4.965400 11.033500
     CHANNELS 3 Yrotation Xrotation Zrotation
     End Site
     {
      OFFSET 0.000000 -1.423100 5.872300
     }
    }
   }
  }
 }
 JOINT LeftHip
 {
  OFFSET 7.771700 -0.012900 -0.001300
  CHANNELS 3 Yrotation Xrotation Zrotation
  JOINT LeftKnee
  {
   OFFSET 0.000000 -40.869800 0.001200
   CHANNELS 3 Yrotation Xrotation Zrotation
   JOINT LeftAnkle
   {
    OFFSET 0.000000 -39.717900 0.002100
    CHANNELS 3 Yrotation Xrotation Zrotation
    JOINT LeftToe
    {
     OFFSET 0.000000 -4.965400 11.033500
     CHANNELS 3 Yrotation Xrotation Zrotation
     End Site
     {
      OFFSET 0.000000 -1.423100 5.872300
     }
    }
   }
  }
 }
}
MOTION
Frames: 13
Frame Time: 0.008333
-99.215783 57.475857 94.240417 176.442274 -35.980727 -2.079279 2.910130 20.711465 2.632439 0.315925 2.701605 0.308007 0.533087 4.400319 0.501953 2.405297 17.673348 2.349040 -0.819772 9.847636 -2.342713 -0.512096 -17.524878 -4.182132 -0.239610 -0.448566 0.156096 -8.816531 -15.511027 -10.077408 130.740426 -36.684830 -136.868901 16.297028 -17.273551 -49.353977 -6.018870 -0.836368 -0.928337 31.894187 -10.851453 2.798138 -127.596545 -21.579348 154.380605 -11.664636 -15.451377 32.695339 12.279509 -39.550553 -6.168141 -8.709131 67.734091 -6.771377 8.202612 22.616885 7.832405 -0.266362 -15.480582 2.290830 -7.963918 -37.067566 3.455448 27.535394 65.944859 25.504923 -16.019277 5.026748 -3.812527 0.034062 0.212450 0.012287
-99.219593 57.477929 94.238155 176.456182 -36.006766 -2.067611 2.902600 20.726061 2.611823 0.315883 2.701219 0.306182 0.532800 4.402033 0.500198 2.401819 17.678650 2.348388 -0.820630 9.887954 -2.334606 -0.525439 -17.416060 -4.135486 -0.224620 -0.443799 0.152151 -8.775984 -15.531417 -10.142356 131.362295 -36.608442 -137.245734 16.316762 -17.298498 -49.435227 -6.038532 -0.815211 -0.942263 31.752004 -10.911818 2.703473 -127.786661 -21.544581 154.483421 -11.663918 -15.453580 32.684348 12.269186 -39.522591 -6.174934 -8.747684 67.739497 -6.824721 8.213689 22.616421 7.839899 -0.267305 -15.486454 2.290612 -7.944307 -37.040910 3.416368 27.525867 65.938931 25.502607 -16.022293 5.028898 -3.810287 0.034174 0.211801 0.012594
-99.223308 57.479573 94.236800 176.463137 -36.025736 -2.055234 2.910758 20.721430 2.595256 0.306606 2.713229 0.307018 0.530368 4.406343 0.501226 2.399944 17.681505 2.344960 -0.823079 9.931950 -2.327368 -0.534928 -17.331100 -4.100405 -0.225213 -0.439301 0.161023 -8.707341 -15.557659 -10.228228 131.965535 -36.536927 -137.607408 16.335103 -17.334253 -49.501899 -6.057843 -0.791955 -0.957815 31.613528 -10.979568 2.615927 -127.983858 -21.546999 154.565192 -11.658048 -15.445238 32.669235 12.270217 -39.502036 -6.183060 -8.795953 67.742935 -6.884684 8.229834 22.614431 7.855894 -0.269136 -15.490145 2.285636 -7.920495 -37.020507 3.380192 27.520572 65.931547 25.505983 -16.022693 5.028386 -3.806546 0.031927 0.214085 0.011563
-99.227143 57.480579 94.236436 176.467943 -36.037095 -2.043308 2.911704 20.720127 2.581310 0.315157 2.703765 0.301552 0.514831 4.426407 0.508472 2.399508 17.678285 2.326530 -0.822002 9.958757 -2.308395 -0.544935 -17.215003 -4.068291 -0.220076 -0.437948 0.173207 -8.633431 -15.577128 -10.315523 132.535992 -36.463792 -137.952377 16.357997 -17.375585 -49.557802 -6.067392 -0.770165 -0.968427 31.466299 -11.050856 2.543589 -128.170803 -21.578998 154.625722 -11.648785 -15.424997 32.652913 12.273864 -39.489473 -6.195454 -8.817683 67.746625 -6.911921 8.235097 22.614399 7.857399 -0.265887 -15.493416 2.287072 -7.895807 -37.007689 3.345769 27.517425 65.921923 25.508624 -16.014090 5.031216 -3.795656 0.023039 0.216222 0.007790
-99.230940 57.481674 94.235824 176.468579 -36.050410 -2.030668 2.917676 20.718480 2.571378 0.314695 2.705318 0.300059 0.511693 4.430819 0.502280 2.395746 17.682355 2.315956 -0.820412 9.986053 -2.289286 -0.554699 -17.085461 -4.036136 -0.211788 -0.434504 0.187670 -8.552852 -15.595701 -10.408388 133.066204 -36.376333 -138.275159 16.386400 -17.411366 -49.613389 -6.073758 -0.759168 -0.977454 31.311100 -11.115422 2.484094 -128.331615 -21.631966 154.663131 -11.637373 -15.394250 32.636938 12.291757 -39.477364 -6.209464 -8.845054 67.754008 -6.939674 8.233175 22.615863 7.859440 -0.259823 -15.499010 2.289422 -7.868092 -36.993258 3.312451 27.519699 65.914042 25.518019 -16.007584 5.032219 -3.783770 0.014646 0.218270 0.003091
-99.237243 57.485186 94.231224 176.491518 -36.091120 -2.016029 2.898540 20.749316 2.546489 0.316512 2.702508 0.300107 0.520850 4.421388 0.496384 2.384263 17.699815 2.307831 -0.822979 10.041231 -2.273228 -0.563671 -16.967688 -4.003036 -0.195881 -0.425528 0.185666 -8.488079 -15.611722 -10.484981 133.565864 -36.272478 -138.577136 16.416797 -17.441524 -49.666482 -6.087978 -0.749076 -0.983045 31.158829 -11.175248 2.428284 -128.470276 -21.698460 154.676927 -11.622028 -15.354112 32.625172 12.301134 -39.431940 -6.238890 -8.847354 67.766845 -6.942927 8.225811 22.615571 7.864655 -0.255978 -15.509637 2.290039 -7.840165 -36.952503 3.253805 27.545958 65.900384 25.546895 -16.006199 5.044651 -3.768913 0.000637 0.211097 0.000428
-99.242444 57.486187 94.229668 176.502168 -36.110643 -2.003223 2.886117 20.766291 2.527909 0.322358 2.691824 0.302478 0.516366 4.429657 0.494140 2.379075 17.700145 2.293773 -0.821390 10.102228 -2.258146 -0.567674 -16.841868 -3.974894 -0.188950 -0.417594 0.196138 -8.410044 -15.625685 -10.577084 134.049106 -36.164590 -138.865393 16.449519 -17.467933 -49.710391 -6.089146 -0.742867 -0.981914 31.005710 -11.223515 2.372073 -128.591922 -21.772860 154.669378 -11.603548 -15.310626 32.620321 12.321159 -39.412302 -6.266133 -8.847494 67.777335 -6.941986 8.230371 22.621359 7.874252 -0.259064 -15.522596 2.291826 -7.806104 -36.932500 3.208957 27.547927 65.887068 25.558737 -16.009785 5.054748 -3.756487 0.015002 0.211278 -0.001458
-99.246988 57.486881 94.227968 176.507462 -36.132046 -1.992974 2.887289 20.770632 2.523430 0.319707 2.696062 0.299805 0.513258 4.436258 0.493214 2.377888 17.699086 2.287334 -0.818563 10.233467 -2.241408 -0.575706 -16.771507 -3.958237 -0.185980 -0.407707 0.199862 -8.340883 -15.636024 -10.670986 134.528245 -36.061036 -139.145593 16.485636 -17.486339 -49.751421 -6.088519 -0.731462 -0.982540 30.851075 -11.269873 2.313985 -128.689335 -21.852553 154.641581 -11.590506 -15.273866 32.625667 12.345066 -39.392282 -6.287791 -8.858428 67.788337 -6.948331 8.235471 22.623230 7.884141 -0.258913 -15.531980 2.292198 -7.774643 -36.910979 3.173598 27.564680 65.876594 25.585299 -16.025196 5.057801 -3.748578 0.015804 0.210589 -0.003893
-99.251395 57.486863 94.226639 176.517322 -36.151046 -1.989108 2.891076 20.762679 2.524879 0.310115 2.713830 0.295785 0.520747 4.424256 0.493971 2.370416 17.706064 2.278825 -0.818151 10.313915 -2.227596 -0.577492 -16.633314 -3.940743 -0.174729 -0.389546 0.204627 -8.290240 -15.641268 -10.761091 135.012763 -35.961609 -139.420989 16.520959 -17.494703 -49.796247 -6.088189 -0.710108 -0.978075 30.695121 -11.317863 2.257297 -128.759989 -21.935074 154.596827 -11.585317 -15.247115 32.637183 12.353580 -39.374368 -6.299700 -8.872899 67.797667 -6.963757 8.239264 22.619168 7.895178 -0.258345 -15.535056 2.289949 -7.764596 -36.892455 3.152583 27.613569 65.863847 25.632254 -16.052831 5.059688 -3.745680 0.017349 0.213015 -0.001304
-99.256357 57.485555 94.226511 176.525259 -36.161489 -1.985060 2.886480 20.767106 2.519621 0.307421 2.717199 0.294449 0.522811 4.421621 0.494415 2.369939 17.704709 2.275878 -0.818324 10.354497 -2.222416 -0.571616 -16.457146 -3.926738 -0.149383 -0.372932 0.199493 -8.258119 -15.648194 -10.845383 135.504808 -35.874994 -139.695035 16.547448 -17.499851 -49.837829 -6.091696 -0.693493 -0.977666 30.546937 -11.368392 2.204635 -128.810231 -22.017646 154.541389 -11.588091 -15.228775 32.648631 12.365106 -39.366131 -6.312750 -8.904123 67.806472 -6.995874 8.246730 22.613032 7.908507 -0.258215 -15.534983 2.286845 -7.720842 -36.880803 3.113549 27.637973 65.841345 25.681872 -16.084280 5.064173 -3.747256 0.029895 0.218792 0.003709
-99.266513 57.484144 94.225558 176.543735 -36.175503 -1.960807 2.863920 20.776793 2.487059 0.312033 2.711295 0.296190 0.517583 4.428170 0.492153 2.376380 17.703497 2.275057 -0.824447 10.395184 -2.217847 -0.562824 -16.282957 -3.916265 -0.149136 -0.361931 0.199346 -8.211204 -15.653289 -10.937702 136.006269 -35.811949 -139.969958 16.562561 -17.502856 -49.867688 -6.093150 -0.664025 -0.968167 30.398842 -11.425052 2.143789 -128.842276 -22.096180 154.476872 -11.597441 -15.219001 32.662267 12.403473 -39.352369 -6.367230 -8.965090 67.824318 -7.051561 8.258819 22.607528 7.922485 -0.258624 -15.540422 2.288341 -7.656797 -36.865111 3.033896 27.699519 65.799683 25.758723 -16.127719 5.079401 -3.732080 0.030945 0.223742 0.003718
-99.279368 57.482641 94.224230 176.551405 -36.192222 -1.919547 2.856315 20.784571 2.450647 0.311618 2.712209 0.295821 0.516687 4.429770 0.491377 2.379561 17.703966 2.274992 -0.815875 10.522352 -2.212234 -0.572729 -16.199226 -3.908890 -0.162986 -0.353337 0.200897 -8.156347 -15.659194 -11.037852 136.514079 -35.771921 -140.244043 16.570647 -17.501486 -49.888535 -6.100502 -0.646126 -0.961113 30.258686 -11.470613 2.095859 -128.854931 -22.165018 154.402729 -11.609795 -15.214002 32.681116 12.480429 -39.341791 -6.446688 -9.053048 67.852198 -7.120808 8.264141 22.615859 7.932224 -0.249679 -15.559632 2.292888 -7.516856 -36.843638 2.896931 27.683040 65.755751 25.809799 -16.142673 5.085832 -3.715058 0.028675 0.238972 0.002116
-99.292521 57.481088 94.222842 176.563391 -36.210585 -1.884913 2.870716 20.775992 2.440555 0.290397 2.728487 0.285359 0.530703 4.423207 0.497506 2.361852 17.716063 2.268368 -0.807274 10.610147 -2.211079 -0.572041 -16.083508 -3.907910 -0.161478 -0.343384 0.200758 -8.108884 -15.669435 -11.142605 137.017696 -35.749619 -140.511645 16.577302 -17.499884 -49.910460 -6.102942 -0.631664 -0.955153 30.122448 -11.516029 2.053042 -128.784334 -22.190308 154.324956 -11.547178 -15.209200 32.669828 12.509361 -39.321657 -6.498187 -9.077829 67.864353 -7.150051 8.245639 22.633480 7.921530 -0.226103 -15.580218 2.304361 -7.476309 -36.830253 2.828303 27.701327 65.742094 25.831265 -16.171325 5.070316 -3.710477 0.054801 0.272968 0.009336
